<svg width="643" height="303" viewBox="0 0 643 303" fill="none" xmlns="http://www.w3.org/2000/svg">
<path d="M511.509 0H406.835C402.795 0 399.52 3.27544 399.52 7.3159V292.934C399.52 296.974 402.795 300.25 406.835 300.25H511.509C515.55 300.25 518.825 296.974 518.825 292.934V7.3159C518.825 3.27544 515.55 0 511.509 0Z" fill="#676767"/>
<path d="M500.186 20.6177H418.159C416.078 20.6177 414.391 22.305 414.391 24.3865V24.3865C414.391 26.4679 416.078 28.1553 418.159 28.1553H500.186C502.268 28.1553 503.955 26.4679 503.955 24.3865C503.955 22.305 502.268 20.6177 500.186 20.6177Z" fill="#ABE3F5"/>
<path d="M500.186 34.8062H418.159C416.078 34.8062 414.391 36.4935 414.391 38.5749V38.575C414.391 40.6564 416.078 42.3438 418.159 42.3438H500.186C502.268 42.3438 503.955 40.6564 503.955 38.5749C503.955 36.4935 502.268 34.8062 500.186 34.8062Z" fill="#E8F6FE"/>
<path d="M500.186 108.852H418.159C416.078 108.852 414.391 110.539 414.391 112.62V112.62C414.391 114.702 416.078 116.389 418.159 116.389H500.186C502.268 116.389 503.955 114.702 503.955 112.62C503.955 110.539 502.268 108.852 500.186 108.852Z" fill="#E8F6FE"/>
<path d="M500.186 123.04H418.159C416.078 123.04 414.391 124.727 414.391 126.809V126.809C414.391 128.89 416.078 130.578 418.159 130.578H500.186C502.268 130.578 503.955 128.89 503.955 126.809C503.955 124.727 502.268 123.04 500.186 123.04Z" fill="#E8F6FE"/>
<path d="M500.186 137.229H418.159C416.078 137.229 414.391 138.916 414.391 140.997V140.997C414.391 143.079 416.078 144.766 418.159 144.766H500.186C502.268 144.766 503.955 143.079 503.955 140.997C503.955 138.916 502.268 137.229 500.186 137.229Z" fill="#E8F6FE"/>
<path d="M500.186 151.417H418.159C416.078 151.417 414.391 153.104 414.391 155.186V155.186C414.391 157.267 416.078 158.955 418.159 158.955H500.186C502.268 158.955 503.955 157.267 503.955 155.186C503.955 153.104 502.268 151.417 500.186 151.417Z" fill="#E8F6FE"/>
<path d="M492.138 74.8778C497.327 74.8778 501.533 70.6716 501.533 65.4831C501.533 60.2945 497.327 56.0884 492.138 56.0884C486.95 56.0884 482.744 60.2945 482.744 65.4831C482.744 70.6716 486.95 74.8778 492.138 74.8778Z" fill="#99CC33"/>
<path d="M496.818 241.112H481.385C477.443 241.112 474.248 244.308 474.248 248.249V275.065C474.248 279.006 477.443 282.202 481.385 282.202H496.818C500.76 282.202 503.955 279.006 503.955 275.065V248.249C503.955 244.308 500.76 241.112 496.818 241.112Z" fill="#ABE3F5"/>
<path d="M316.704 301.467H255.763C255.042 301.467 254.328 301.318 253.667 301.028C253.006 300.738 252.413 300.315 251.924 299.784C251.435 299.254 251.062 298.628 250.827 297.945C250.592 297.263 250.501 296.54 250.56 295.82L260.395 175.905C260.502 174.599 261.097 173.38 262.061 172.492C263.024 171.604 264.287 171.111 265.598 171.111H306.869C308.18 171.111 309.442 171.604 310.406 172.492C311.37 173.38 311.965 174.599 312.072 175.905L321.906 295.82C321.965 296.54 321.875 297.263 321.64 297.945C321.405 298.628 321.032 299.254 320.543 299.784C320.054 300.315 319.46 300.738 318.8 301.028C318.139 301.318 317.425 301.467 316.704 301.467V301.467Z" fill="#104C64"/>
<path opacity="0.1" d="M314.564 206.29C312.693 223.151 308.67 239.703 302.594 255.541C294.2 277.827 280.306 292.645 265.182 301.467H322.369L314.564 206.29Z" fill="#1B1E21"/>
<path d="M425.692 55.6123H146.774C134.293 55.6123 124.175 65.7305 124.175 78.212V224.556C124.175 237.038 134.293 247.156 146.774 247.156H425.692C438.173 247.156 448.291 237.038 448.291 224.556V78.212C448.291 65.7305 438.173 55.6123 425.692 55.6123Z" fill="#104C64"/>
<path d="M423.239 65.6978H149.227C141.632 65.6978 135.475 71.8551 135.475 79.4505V223.318C135.475 230.914 141.632 237.071 149.227 237.071H423.239C430.834 237.071 436.992 230.914 436.992 223.318V79.4505C436.992 71.8551 430.834 65.6978 423.239 65.6978Z" fill="#6BBDD9"/>
<path d="M375.983 291.934H197.291C194.189 291.934 191.675 294.315 191.675 297.252V297.252C191.675 300.19 194.189 302.571 197.291 302.571H375.983C379.085 302.571 381.599 300.19 381.599 297.252C381.599 294.315 379.085 291.934 375.983 291.934Z" fill="#104C64"/>
<path d="M279.921 107.487L233.72 186.989C233.035 188.167 232.675 189.504 232.675 190.864C232.675 192.224 233.035 193.56 233.72 194.738C234.404 195.916 235.389 196.894 236.574 197.574C237.76 198.254 239.105 198.612 240.474 198.612H332.876C334.245 198.612 335.59 198.254 336.775 197.574C337.961 196.894 338.945 195.916 339.63 194.738C340.314 193.56 340.675 192.224 340.675 190.864C340.675 189.504 340.314 188.167 339.63 186.989L293.429 107.487C292.745 106.309 291.76 105.33 290.574 104.65C289.389 103.97 288.044 103.612 286.675 103.612C285.306 103.612 283.961 103.97 282.775 104.65C281.59 105.33 280.605 106.309 279.921 107.487V107.487Z" fill="#FF9933"/>
<path d="M291.427 131.067L290.548 169.579H281.972L281.12 131.067H291.427ZM286.26 186.198C284.645 186.198 283.26 185.63 282.106 184.494C280.969 183.357 280.401 181.972 280.401 180.339C280.401 178.741 280.969 177.374 282.106 176.237C283.26 175.101 284.645 174.533 286.26 174.533C287.841 174.533 289.208 175.101 290.362 176.237C291.534 177.374 292.12 178.741 292.12 180.339C292.12 181.422 291.845 182.407 291.294 183.295C290.761 184.183 290.051 184.893 289.163 185.426C288.293 185.941 287.326 186.198 286.26 186.198Z" fill="white"/>
<path opacity="0.19" d="M429.904 56.0103C430.434 99.0873 410.283 145.316 341.036 184.343C281.08 218.134 193.038 225.884 124.175 224.556C125.635 241.969 137.504 247.156 146.774 247.156H425.692C431.686 247.156 437.434 244.775 441.672 240.537C445.91 236.298 448.292 230.55 448.292 224.556V78.2119C448.291 72.9495 446.453 67.8523 443.097 63.7994C439.74 59.7464 435.074 56.9917 429.904 56.0103V56.0103Z" fill="#1A1A1A"/>
<path d="M408.803 257.413C404.269 269.801 395.534 265.877 390.045 273.354C389.575 275.043 389.488 278.795 392.895 280.287C397.153 282.152 401.889 283.916 419.183 281.45C434.103 279.322 446.284 268.678 452.264 260.618C459.9 250.326 463.032 234.138 454.236 221.591C448.476 213.374 435.676 209.711 424.5 218.106C410.703 228.469 414.469 241.93 408.803 257.413Z" fill="#99CC33"/>
<circle cx="428.651" cy="225.267" r="3.28713" transform="rotate(15.5273 428.651 225.267)" fill="#1B1E21"/>
<circle cx="430.623" cy="198.522" r="3.28713" transform="rotate(15.5273 430.623 198.522)" fill="#99CC33"/>
<circle cx="450.188" cy="231.251" r="3.28713" transform="rotate(15.5273 450.188 231.251)" fill="#1B1E21"/>
<circle cx="462.295" cy="207.322" r="3.28713" transform="rotate(15.5273 462.295 207.322)" fill="#99CC33"/>
<circle cx="450.997" cy="230.794" r="1.31485" transform="rotate(15.5273 450.997 230.794)" fill="#E8F6FE"/>
<circle cx="429.461" cy="224.81" r="1.31485" transform="rotate(15.5273 429.461 224.81)" fill="#E8F6FE"/>
<line x1="450.556" y1="220.887" x2="462.381" y2="207.796" stroke="#99CC33"/>
<line x1="435.006" y1="216.538" x2="430.597" y2="199.457" stroke="#99CC33"/>
<circle cx="198.675" cy="69.6123" r="27.5" fill="#00519F" stroke="#00519F"/>
<line x1="197.675" y1="29.6123" x2="197.675" y2="109.612" stroke="#00519F" stroke-width="2" stroke-linecap="round"/>
<line x1="236.675" y1="70.6123" x2="156.675" y2="70.6123" stroke="#00519F" stroke-width="2" stroke-linecap="round"/>
<line x1="217.541" y1="35.4715" x2="177.541" y2="104.754" stroke="#00519F" stroke-width="2" stroke-linecap="round"/>
<line x1="230.816" y1="90.4783" x2="161.534" y2="50.4783" stroke="#00519F" stroke-width="2" stroke-linecap="round"/>
<line x1="231.816" y1="50.4783" x2="162.534" y2="90.4783" stroke="#00519F" stroke-width="2" stroke-linecap="round"/>
<line x1="215.809" y1="104.753" x2="175.809" y2="35.4711" stroke="#00519F" stroke-width="2" stroke-linecap="round"/>
<circle cx="190.675" cy="60.6123" r="9" fill="#FFFF33"/>
</svg>
